<svg width="40" height="40" viewBox="0 0 40 40" fill="none" xmlns="http://www.w3.org/2000/svg">
<path d="M27.9705 13.0166C26.5045 12.3748 24.9325 11.902 23.2889 11.6311C23.259 11.6259 23.2291 11.639 23.2137 11.6651C23.0115 12.0082 22.7875 12.4558 22.6307 12.8076C20.8629 12.5551 19.1041 12.5551 17.3726 12.8076C17.2157 12.448 16.9836 12.0082 16.7806 11.6651C16.7651 11.6398 16.7352 11.6268 16.7053 11.6311C15.0626 11.9011 13.4906 12.3739 12.0237 13.0166C12.011 13.0218 12.0001 13.0305 11.9929 13.0419C9.01117 17.2923 8.19434 21.4382 8.59505 25.5328C8.59686 25.5528 8.60865 25.572 8.62496 25.5842C10.5922 26.9627 12.4979 27.7995 14.3681 28.3542C14.3981 28.3629 14.4298 28.3525 14.4488 28.329C14.8912 27.7525 15.2856 27.1447 15.6237 26.5055C15.6437 26.4681 15.6247 26.4236 15.5839 26.4088C14.9583 26.1824 14.3627 25.9064 13.7897 25.5929C13.7444 25.5676 13.7408 25.5058 13.7825 25.4762C13.9031 25.39 14.0237 25.3003 14.1388 25.2097C14.1596 25.1932 14.1886 25.1897 14.2131 25.2001C17.9772 26.8399 22.0523 26.8399 25.772 25.2001C25.7965 25.1888 25.8255 25.1923 25.8472 25.2088C25.9624 25.2994 26.083 25.39 26.2045 25.4762C26.2462 25.5058 26.2434 25.5676 26.1981 25.5929C25.6252 25.9125 25.0295 26.1824 24.4031 26.408C24.3623 26.4228 24.3442 26.4681 24.3641 26.5055C24.7095 27.1438 25.1039 27.7516 25.5381 28.3281C25.5562 28.3525 25.5889 28.3629 25.6188 28.3542C27.4981 27.7995 29.4038 26.9627 31.371 25.5842C31.3883 25.572 31.3992 25.5537 31.401 25.5337C31.8805 20.7999 30.5977 16.688 28.0004 13.0427C27.994 13.0305 27.9832 13.0218 27.9705 13.0166ZM16.1859 23.0396C15.0526 23.0396 14.1188 22.0469 14.1188 20.8278C14.1188 19.6086 15.0345 18.6159 16.1859 18.6159C17.3463 18.6159 18.271 19.6174 18.2528 20.8278C18.2528 22.0469 17.3372 23.0396 16.1859 23.0396ZM23.8283 23.0396C22.6951 23.0396 21.7613 22.0469 21.7613 20.8278C21.7613 19.6086 22.6769 18.6159 23.8283 18.6159C24.9887 18.6159 25.9134 19.6174 25.8953 20.8278C25.8953 22.0469 24.9887 23.0396 23.8283 23.0396Z" fill="white"/>
</svg>
