<svg width="40" height="40" viewBox="0 0 40 40" fill="none" xmlns="http://www.w3.org/2000/svg">
<path d="M20 22.9531C21.631 22.9531 22.9531 21.631 22.9531 20C22.9531 18.369 21.631 17.0469 20 17.0469C18.369 17.0469 17.0469 18.369 17.0469 20C17.0469 21.631 18.369 22.9531 20 22.9531Z" fill="white"/>
<path d="M28.8031 16.3473C28.761 15.4051 28.6098 14.7617 28.3918 14.1957C28.1668 13.6121 27.861 13.1199 27.3688 12.6277C26.8766 12.1355 26.3809 11.8332 25.8008 11.6047C25.2383 11.3867 24.5949 11.2355 23.6492 11.1934C22.7071 11.1547 22.4047 11.1441 20 11.1441C17.5953 11.1441 17.293 11.1547 16.3473 11.1969C15.4051 11.2391 14.7617 11.3902 14.1992 11.6082C13.6156 11.8332 13.1235 12.1391 12.6313 12.6312C12.1391 13.1234 11.8367 13.6191 11.6082 14.1992C11.3903 14.7617 11.2391 15.4051 11.1969 16.3508C11.1547 17.293 11.1442 17.5953 11.1442 20C11.1442 22.4047 11.1547 22.707 11.1969 23.6527C11.2391 24.5949 11.3903 25.2383 11.6082 25.8043C11.8332 26.3879 12.1391 26.8801 12.6313 27.3723C13.1235 27.8644 13.6192 28.1668 14.1992 28.3953C14.7617 28.6133 15.4051 28.7644 16.3508 28.8066C17.2965 28.8488 17.5953 28.8594 20.0035 28.8594C22.4117 28.8594 22.7106 28.8488 23.6563 28.8066C24.5985 28.7644 25.2418 28.6133 25.8078 28.3953C26.3914 28.1703 26.8836 27.8644 27.3758 27.3723C27.868 26.8801 28.1703 26.3844 28.3988 25.8043C28.6168 25.2418 28.768 24.5984 28.8102 23.6527C28.8524 22.707 28.8629 22.4082 28.8629 20C28.8629 17.5918 28.8453 17.293 28.8031 16.3473ZM20 24.5492C17.4899 24.5492 15.4508 22.5137 15.4508 20C15.4508 17.4898 17.4864 15.4508 20 15.4508C22.5137 15.4508 24.5492 17.4898 24.5492 20C24.5492 22.5102 22.5102 24.5492 20 24.5492ZM24.7285 16.3367C24.1414 16.3367 23.6668 15.8621 23.6668 15.275C23.6668 14.6879 24.1414 14.2133 24.7285 14.2133C25.3156 14.2133 25.7903 14.6879 25.7903 15.275C25.7903 15.8621 25.3156 16.3367 24.7285 16.3367Z" fill="white"/>
</svg>
