<svg width="32" height="52" viewBox="0 0 32 52" fill="none" xmlns="http://www.w3.org/2000/svg">
<g clip-path="url(#clip0_33_161)">
<path d="M28.4077 24.0071L24.153 21.9207L15.994 25.4429L7.83503 21.9207L3.54437 24.0236L4.68903 26.4411C5.49171 26.7867 6.2381 27.2474 6.90395 27.8084C7.94062 28.7025 9.30365 30.1218 9.30365 30.1218L16.0012 32.3832L22.6868 30.1218C22.6868 30.1218 24.0522 28.7025 25.0865 27.8084C25.7534 27.2477 26.5006 26.787 27.3038 26.4411L28.4461 24.0236L28.4125 24.0071H28.4077ZM7.47508 26.2685L8.42056 24.6812C8.42056 24.6812 9.91797 25.2561 11.461 25.9231C13.004 26.5902 13.6879 27.7942 13.6711 29.1543C11.7176 27.9746 9.64012 27.0069 7.47508 26.2685ZM18.3313 29.1543C18.3121 27.7942 18.9984 26.5902 20.5414 25.9231C22.0845 25.2561 23.5795 24.6812 23.5795 24.6812L24.525 26.2685C22.3608 27.0072 20.2841 27.9748 18.3313 29.1543Z" fill="#00FED9"/>
<path d="M15.4565 33.9468L13.5871 33.3294C14.4452 34.2152 15.2512 35.1488 16.0012 36.1254V34.1431L15.4565 33.9468Z" fill="#00FED9"/>
<path d="M31.9592 24.8563C32.0168 24.6867 32.0168 24.5032 31.9592 24.3335L31.0305 21.6535C30.9726 21.4843 30.8606 21.3383 30.7113 21.2372C30.562 21.1362 30.3836 21.0855 30.2026 21.0928L29.8859 21.1047C29.1252 14.3631 24.4121 8.99113 18.4897 7.79657L17.5802 0.723831C17.554 0.524175 17.4551 0.340694 17.302 0.207541C17.1488 0.0743879 16.9517 0.000633009 16.7475 0H15.2477C15.0433 0.00012852 14.846 0.0737063 14.6927 0.206953C14.5394 0.340199 14.4407 0.52397 14.415 0.723831L13.5055 7.79657C7.58305 8.99113 2.87245 14.3631 2.11174 21.1047L1.79258 21.0928C1.61213 21.0864 1.43438 21.1375 1.28568 21.2384C1.13699 21.3394 1.02526 21.485 0.967081 21.6535L0.0455977 24.3406C-0.0120254 24.5103 -0.0120254 24.6938 0.0455977 24.8634L1.42542 29.0716C1.58141 29.8971 1.93656 32.052 1.83097 32.8989C1.81503 33.2577 1.68396 33.6022 1.45662 33.8829C1.34902 33.9425 1.25781 34.0271 1.1909 34.1293C1.12399 34.2316 1.0834 34.3483 1.07267 34.4695C1.06121 34.5994 1.08186 34.7301 1.13284 34.8504C1.18383 34.9707 1.26364 35.077 1.36543 35.1603C3.31125 37.0418 5.14831 39.0295 6.86794 41.1141C8.14462 42.6987 9.33959 44.3455 10.4483 46.0485C12.4185 48.9698 13.9711 51.2785 15.6988 51.9456C15.8956 52.0212 16.114 52.0212 16.3108 51.9456C18.0385 51.2785 19.5935 48.9698 21.5613 46.0485C22.6683 44.3432 23.8616 42.694 25.1369 41.107C26.8573 39.0231 28.6943 37.0354 30.6394 35.1532C30.7412 35.0699 30.821 34.9636 30.872 34.8433C30.9229 34.723 30.9436 34.5923 30.9321 34.4624C30.9214 34.3412 30.8808 34.2245 30.8139 34.1222C30.747 34.02 30.6558 33.9354 30.5482 33.8758C30.321 33.5953 30.1906 33.2505 30.1762 32.8918C30.0706 32.0449 30.4162 29.89 30.5818 29.0645L31.9592 24.8563ZM15.9964 1.65582L16.7571 7.50798C16.2531 7.47014 15.7469 7.47014 15.2429 7.50798L15.9964 1.65582ZM15.9964 9.19929C22.0364 9.19929 27.1766 14.1999 28.1413 20.7901L24.3474 19.0231L24.3258 18.6233C24.3162 18.435 24.2417 18.2556 24.1146 18.1147L18.4921 11.9125C18.348 11.7537 18.1475 11.6558 17.932 11.639C17.7166 11.6223 17.5029 11.688 17.3354 11.8226C17.3354 11.8226 16.6971 12.3359 15.9964 12.8847C15.2933 12.3359 14.6646 11.8297 14.6574 11.8226C14.4895 11.6879 14.2754 11.6221 14.0596 11.6388C13.8438 11.6555 13.6428 11.7535 13.4983 11.9125L7.87822 18.1147C7.75076 18.2556 7.67548 18.4349 7.66464 18.6233L7.64305 19.0231L3.85392 20.7924C4.821 14.1999 9.96836 9.20165 16.0012 9.20165L15.9964 9.19929ZM28.9548 28.5961C28.9548 28.6292 28.9356 28.6623 28.9284 28.6978C28.8684 29.0124 28.3381 31.8108 28.4964 33.0857C28.5477 33.5708 28.6935 34.0414 28.926 34.4719C28.0165 35.366 26.0751 37.3436 23.8242 40.0497C22.5144 41.6803 21.2883 43.3745 20.1503 45.126C18.6241 47.3921 17.1747 49.5423 15.994 50.2448C14.8109 49.5352 13.3543 47.3897 11.8353 45.126C10.6973 43.3745 9.47117 41.6803 8.16138 40.0497C5.91047 37.3436 3.97151 35.366 3.06202 34.4719C3.29176 34.043 3.43671 33.5751 3.48917 33.0928C3.64755 31.8179 3.11722 29.0195 3.05482 28.7049C3.04858 28.6704 3.03976 28.6364 3.02842 28.6032L1.71579 24.6079L2.35171 22.7723L3.218 22.8054C3.35288 22.8112 3.48715 22.7844 3.60915 22.7274L8.8117 20.3051C8.94901 20.2403 9.06606 20.1402 9.15052 20.0153C9.23498 19.8904 9.28373 19.7454 9.29164 19.5955L9.32284 18.9947L14.2134 13.5967C14.571 13.8805 15.0341 14.2448 15.4757 14.5831C15.6233 14.6957 15.8049 14.7565 15.9916 14.7558C16.1775 14.7562 16.3582 14.6954 16.5051 14.5831C16.9467 14.2448 17.4098 13.8734 17.7674 13.5967L22.658 18.9947L22.6916 19.5955C22.7036 19.7943 22.7889 19.9819 22.9315 20.123L22.9483 20.1419C22.9746 20.1675 23.0027 20.1912 23.0323 20.2129L23.0587 20.2342C23.0971 20.2578 23.1355 20.2815 23.1787 20.3028L28.3789 22.725C28.5013 22.7807 28.6352 22.8074 28.77 22.8031L29.6363 22.77L30.2722 24.6056L28.9548 28.5961Z" fill="#00FED9"/>
<path d="M21.0238 19.6854V19.6641L17.5826 15.8652L17.549 15.8936C17.1062 16.2304 16.5629 16.4134 16.0036 16.414V23.631L21.6501 21.1898C21.2745 20.7727 21.0537 20.2423 21.0238 19.6854Z" fill="#00FED9"/>
<path d="M26.1999 29.055C25.24 29.8853 23.9226 31.2478 23.9082 31.262L23.625 31.5553L23.2363 31.6878L18.2689 33.3649L16.0012 36.1136V42.8859C14.1617 41.5866 12.399 40.1848 10.7218 38.6872C7.28067 35.5104 5.04175 34.2448 5.04175 34.2448C5.04175 34.2448 8.6005 37.9681 10.0427 39.6854C12.2247 42.3238 14.2134 45.1118 15.994 48.0284C16.1116 47.8936 16.2339 47.7445 16.3563 47.5908C16.8171 46.9214 17.6762 45.6984 18.7056 44.2791L18.7512 44.2153C19.9206 42.4196 21.1804 40.6828 22.526 39.0112C23.565 37.7623 24.5369 36.6671 25.3816 35.754C26.2815 33.8616 26.0607 32.3288 26.5695 30.6801C26.712 30.2854 26.8828 29.9012 27.0806 29.5305C27.1574 29.0385 27.2342 28.6316 27.2798 28.3974C27.2991 28.2966 27.3248 28.1971 27.3566 28.0994L27.4453 27.8273C26.9702 28.2957 26.4159 28.8681 26.1999 29.055Z" fill="#00FED9"/>
</g>
<defs>
<clipPath id="clip0_33_161">
<rect width="32" height="52" fill="white"/>
</clipPath>
</defs>
</svg>
