<svg width="40" height="40" viewBox="0 0 40 40" fill="none" xmlns="http://www.w3.org/2000/svg">
<path d="M25.3475 16.5064C25.1462 16.3939 24.9194 16.3349 24.6888 16.3349C24.4582 16.3349 24.2314 16.3939 24.0301 16.5064L21.0078 18.2594L18.9543 19.4027L15.9321 21.1557C15.7308 21.2681 15.504 21.3271 15.2734 21.3271C15.0428 21.3271 14.8161 21.2681 14.6148 21.1557L12.2124 19.7838C12.0169 19.6717 11.8536 19.5111 11.7383 19.3175C11.623 19.1239 11.5596 18.9039 11.5541 18.6786V15.9729C11.5514 15.746 11.6115 15.5227 11.7276 15.3276C11.8438 15.1326 12.0115 14.9735 12.2124 14.8678L14.576 13.534C14.7773 13.4216 15.004 13.3625 15.2346 13.3625C15.4652 13.3625 15.692 13.4216 15.8933 13.534L18.2569 14.8678C18.4523 14.9799 18.6156 15.1404 18.7309 15.334C18.8462 15.5276 18.9097 15.7477 18.9151 15.9729V17.7259L20.9686 16.5445V14.7916C20.9714 14.5646 20.9113 14.3413 20.7952 14.1463C20.679 13.9513 20.5113 13.7921 20.3104 13.6864L15.9321 11.1714C15.7308 11.059 15.504 11 15.2734 11C15.0428 11 14.8161 11.059 14.6148 11.1714L10.1583 13.6866C9.9575 13.7923 9.78976 13.9514 9.67361 14.1464C9.55746 14.3414 9.49741 14.5646 9.50009 14.7916V19.86C9.49738 20.0869 9.55742 20.3102 9.67357 20.5052C9.78972 20.7003 9.95747 20.8594 10.1583 20.9651L14.6142 23.4803C14.8156 23.5927 15.0423 23.6517 15.2729 23.6517C15.5035 23.6517 15.7302 23.5927 15.9316 23.4803L18.9537 21.7654L21.0073 20.584L24.0296 18.8692C24.2309 18.7566 24.4577 18.6976 24.6883 18.6976C24.9189 18.6976 25.1457 18.7566 25.347 18.8692L27.7105 20.203C27.906 20.3151 28.0693 20.4756 28.1846 20.6692C28.2999 20.8628 28.3633 21.0828 28.3688 21.3081V24.0138C28.3715 24.2408 28.3115 24.4641 28.1953 24.6591C28.0792 24.8541 27.9114 25.0132 27.7105 25.1189L25.347 26.4908C25.1456 26.6033 24.9189 26.6623 24.6883 26.6623C24.4577 26.6623 24.231 26.6033 24.0296 26.4908L21.666 25.157C21.4706 25.0449 21.3073 24.8844 21.192 24.6908C21.0767 24.4972 21.0133 24.2772 21.0078 24.0519V22.2987L18.9543 23.4801V25.2331C18.9516 25.4601 19.0116 25.6834 19.1277 25.8784C19.2439 26.0734 19.4117 26.2325 19.6125 26.3382L24.0684 28.8534C24.2698 28.9658 24.4965 29.0248 24.7271 29.0248C24.9577 29.0248 25.1844 28.9658 25.3858 28.8534L29.8417 26.3382C30.0371 26.2261 30.2004 26.0655 30.3157 25.872C30.431 25.6784 30.4944 25.4583 30.4999 25.2331V20.1648C30.5026 19.9379 30.4426 19.7146 30.3264 19.5196C30.2103 19.3246 30.0425 19.1654 29.8417 19.0597L25.3475 16.5064Z" fill="white"/>
</svg>
