<svg width="315" height="157" viewBox="0 0 315 157" fill="none" xmlns="http://www.w3.org/2000/svg">
<path d="M78.5761 0V10.1376H34.6466V0H78.5761ZM44.7056 32.2988C44.7056 33.399 45.4914 34.0277 46.9846 34.0277H78.4975V44.1653H46.9846C40.3047 44.1653 34.7252 41.4934 34.6466 32.2988V17.0531H44.7056V32.2988Z" fill="#00FFEF"/>
<path d="M89.7353 10.059L85.1773 0H96.2579L100.737 10.059H89.7353ZM112.054 44.1653H101.916V27.0336H97.2795L92.7216 16.9746H101.916H101.995H103.802H110.325L117.869 0H128.871L116.926 27.0336H112.918H112.054V44.1653Z" fill="#00FFEF"/>
<path d="M145.767 17.0531H166.985C168.4 17.0531 169.264 16.503 169.264 15.2457V11.9451C169.264 10.7663 168.478 10.2162 166.985 10.2162H135.551V0.0785828H166.985C173.822 0.0785828 179.323 2.51474 179.402 11.9451V15.3242C179.402 18.3105 178.93 20.4323 177.987 22.2398C178.852 23.8901 179.402 26.0905 179.402 29.0768V32.456C179.245 41.6505 173.744 44.3225 166.985 44.3225H135.551C135.551 35.3637 135.551 26.2477 135.551 17.2103H145.767V17.0531ZM169.343 28.9196C169.343 27.7408 168.557 27.0336 167.064 27.0336H145.846V33.9491H167.064C168.478 33.9491 169.343 33.399 169.343 32.2202V28.9196Z" fill="#00FFEF"/>
<path d="M229.933 0V10.1376H186.082V0H229.933ZM196.219 28.9196V32.2988C196.219 33.399 197.005 34.0277 198.498 34.0277H229.933V44.1653H198.498C191.74 44.1653 186.239 41.572 186.16 32.2988V28.9196C186.239 19.4893 191.74 16.9746 198.498 16.9746H217.752V27.0336H198.498C196.927 27.0336 196.219 27.7408 196.219 28.9196Z" fill="#00FFEF"/>
<path d="M268.047 16.9746C269.461 16.9746 270.247 16.4245 270.247 15.3243V11.9451C270.247 10.8448 269.461 10.1376 268.047 10.1376H236.612V0.0785828H268.047C274.727 0.0785828 280.306 2.51474 280.385 11.9451V15.4028C280.385 22.5542 277.163 25.6976 272.605 26.7192L280.385 44.1653H269.304L261.76 27.0336H246.75V44.1653H236.612V16.9746C247.143 16.9746 257.595 16.9746 268.047 16.9746Z" fill="#00FFEF"/>
<path d="M81.7196 119.293C81.8767 119.922 81.9553 120.472 81.9553 121.022C81.8767 121.572 81.7196 122.044 81.4838 122.437C81.248 122.83 80.9337 123.144 80.6194 123.301C80.305 123.459 79.9907 123.537 79.7549 123.458C78.2618 127.231 75.5898 130.138 71.7391 132.103C67.8884 134.068 64.4307 134.382 61.4444 132.967C59.1654 132.024 57.4365 130.453 56.2577 128.252C55.0789 126.052 54.3716 123.616 54.0573 120.944C53.8215 118.272 53.5858 115.6 53.5072 112.928C53.4286 110.256 53.0357 107.82 52.4856 105.541C51.8569 103.262 50.8353 101.612 49.4207 100.669C48.5563 100.983 48.0848 101.14 48.0062 101.14C47.9276 101.062 47.7704 100.983 47.5347 100.826C47.0632 100.747 47.0632 100.59 47.2989 100.354C47.6133 100.118 47.6918 99.9613 47.6133 99.7256C46.9846 100.433 46.2773 100.983 45.4914 101.297C44.7056 101.612 44.1555 101.847 43.7626 101.847C43.4482 101.847 42.8195 101.847 41.8765 101.847C41.7193 104.048 41.6407 106.484 41.7979 109.077C41.9551 111.671 41.9551 113.085 41.8765 113.4C43.3696 113.478 44.0769 113.792 43.9983 114.343C43.9983 114.814 42.4266 116.464 39.2831 119.372C34.0179 124.323 29.5385 129.352 25.8449 134.539C24.4304 136.111 22.5443 137.211 20.2654 137.761C17.9078 138.311 15.5502 138.311 13.0354 137.761C10.5993 137.211 8.32028 136.111 6.19846 134.618C4.07664 133.046 2.42634 130.846 1.32614 127.859C0.147349 124.873 -0.245581 121.415 0.147349 117.407C0.383106 116.543 0.697448 115.678 1.09038 114.893C1.40472 114.107 2.03342 113.164 2.81928 112.221C3.60514 111.199 4.23382 110.492 4.70534 109.942C5.17685 109.47 6.04129 108.527 7.37725 107.113C8.71321 105.698 9.73483 104.676 10.3635 104.048C11.1494 101.612 11.6209 100.433 11.7781 100.59C11.8567 100.669 11.8567 100.826 11.7781 100.983C13.3498 101.14 14.1356 101.376 14.1356 101.612C14.2142 101.769 14.0571 102.083 13.5855 102.555C13.6641 102.712 13.4284 103.105 12.8783 103.733C12.3282 104.362 11.6995 105.227 11.0708 106.327C10.4421 107.427 9.9706 108.763 9.65625 110.256C9.34191 111.828 9.57767 113.871 10.2849 116.386C10.9922 118.901 12.4068 121.73 14.2928 124.794C14.5286 125.423 14.9215 125.659 15.4716 125.423C16.0217 125.266 16.5718 125.58 17.2005 126.366C18.0649 127.073 19.5581 127.466 21.7585 127.545C23.8803 127.624 25.452 127.388 26.3165 126.759L28.2025 124.402C28.9884 123.066 29.3027 121.965 29.1456 121.101C30.6387 103.969 30.0886 95.1676 27.4167 94.8532C26.7094 94.7746 26.0807 95.2461 25.452 96.3464C24.8233 97.4466 24.1161 98.0753 23.3302 98.2324L22.5443 97.9967C22.6229 98.0752 22.7015 98.1538 22.7801 98.2324C22.7015 98.1538 22.5443 97.9967 22.3872 97.8395L22.1514 97.2894C22.3086 97.2894 22.4658 97.2894 22.5443 97.2894C23.8017 93.753 24.9019 91.0811 26.0021 89.195C27.0237 87.309 27.8096 86.2088 28.2811 85.8944C28.7526 85.5801 29.1456 85.03 29.3813 84.1655C29.6171 83.3011 29.7742 81.9651 29.7742 80.0005C29.6957 75.9926 29.8528 72.8492 30.3244 70.6488C30.7959 68.4484 31.7389 66.7981 33.3892 65.6193C33.8607 64.6762 34.0179 64.1261 33.8607 64.0476C33.7035 63.969 33.3106 64.1261 32.6033 64.4405C32.0532 64.5977 31.6603 64.7548 31.346 64.912C31.0316 65.0691 30.4815 65.2263 29.7742 65.3835C28.9884 65.5407 28.3597 65.6193 27.731 65.6193C27.1023 65.5407 26.3951 65.3835 25.6092 64.9906C24.8233 64.6762 24.0375 64.1261 23.2516 63.576C20.5797 61.0613 18.1435 60.9827 15.7074 63.4188C13.4284 65.7764 12.6425 68.6841 13.3498 72.1419C13.8213 74.1065 14.6857 75.6783 16.1003 77.0142L16.729 78.4288C16.6504 78.3502 16.4932 77.9573 16.3361 77.4072C16.6504 77.25 17.0433 77.0928 17.5148 77.0928C17.9864 77.0142 18.3007 76.9356 18.5365 76.7785C18.7722 76.6213 19.0866 76.2284 19.4795 75.5997C20.6583 74.028 21.4441 74.028 21.8371 75.5997C22.3086 77.7215 21.6799 79.7647 20.1082 81.6508C19.0866 82.8296 17.8292 83.4583 16.4146 83.6154C13.7427 83.3797 11.9352 81.0221 10.9922 76.5427C10.0492 72.0633 10.3635 68.0554 11.9352 64.3619C13.114 60.8255 14.3714 58.1536 15.786 56.2675C17.2005 54.3815 18.4579 53.2813 19.4795 53.0455C20.5011 52.8098 21.6013 52.4954 22.6229 52.1811C23.6445 51.8667 24.509 51.3166 24.9805 50.5308C24.9019 50.6093 24.8233 50.6879 24.8233 50.7665C24.9805 50.6879 25.2163 50.7665 25.452 51.0023C25.9235 51.3166 26.6308 51.7095 27.731 52.0239C28.8312 52.3382 29.5385 52.8883 29.9314 53.4385C30.4815 53.91 31.1888 54.2243 32.0532 54.3815C32.9177 54.5386 33.7821 54.6958 34.6466 54.7744C35.511 54.853 36.0611 55.0102 36.454 55.1673C36.454 55.6388 36.6112 55.8746 36.847 55.9532C37.0827 56.0318 37.4757 56.0318 37.8686 55.8746C38.2615 55.7174 38.733 55.7174 39.2046 55.8746C39.6761 56.0318 40.069 56.3461 40.3048 56.9748C43.291 54.6958 44.7842 54.4601 44.627 56.3461C44.9413 56.1104 45.1771 56.0318 45.2557 56.2675C45.3343 56.5033 45.2557 56.8962 45.1771 57.5249C43.5268 58.4679 42.8981 60.5898 43.4482 63.7332C42.6623 73.3207 42.1908 84.4799 42.0337 97.2894C42.1122 96.975 42.348 96.5821 42.8195 96.2678C43.291 95.9534 43.9197 95.6391 44.8628 95.2462C45.8058 94.9318 46.4345 94.6175 46.7488 94.3031C47.4561 94.3031 49.0278 93.5958 51.464 92.1027C53.9001 90.6882 55.7076 89.7451 56.8864 89.2736C54.0573 86.3659 51.8569 83.2225 50.2852 79.8433C48.7135 76.4641 48.0062 73.0849 48.1633 69.7843C48.3205 66.4051 49.5779 63.7332 52.0141 61.6114C53.35 59.8825 55.0003 58.4679 57.0436 57.4463C59.0868 56.4247 60.8943 55.7174 62.466 55.4031C64.0377 55.0888 66.081 54.7744 68.5171 54.4601C70.0888 54.9316 71.189 55.2459 71.8963 55.5603C72.525 55.8746 72.9179 56.1104 73.0751 56.189C73.2323 56.2675 73.3109 56.5819 73.3894 57.0534C73.468 57.5249 73.6252 57.9964 73.9395 58.4679C74.0181 58.7037 74.0967 59.018 74.1753 59.411C74.2539 59.7253 74.2539 59.9611 74.1753 60.0397C74.0967 60.1183 73.7824 60.1183 73.2323 60.1183C73.0751 60.1968 72.9179 60.2754 72.6822 60.2754C71.4248 60.0397 70.4818 59.5681 69.6959 59.018C68.9101 58.4679 68.5171 57.9964 68.2813 57.6035C68.1242 57.2892 67.5741 57.2106 66.7882 57.3677C65.9238 57.6035 64.6664 58.2322 63.0161 59.2538C62.8589 59.8039 62.5446 60.4326 62.2302 61.2185C61.9159 62.0043 61.6016 62.633 61.3658 63.1831C61.13 63.7332 60.9729 64.2833 60.7371 64.8334C60.5799 65.3835 60.5014 65.9336 60.5014 66.3265C61.2872 69.5486 62.3874 72.3776 63.802 74.7352C65.2165 77.0928 66.5525 78.7431 67.7313 79.6076C68.9886 80.472 69.9317 81.3365 70.6389 82.0437C71.3462 82.8296 71.4248 83.4583 70.8747 84.0084C70.3246 84.5585 68.9886 85.4229 66.7882 86.6017C65.3737 87.2304 64.5092 87.6233 64.1163 87.7019C63.7234 87.7805 63.0947 88.0948 62.1517 88.5663C61.2086 89.0379 60.5799 89.3522 60.187 89.588C59.7941 89.8237 59.3226 90.2167 58.7724 90.6882C58.2223 91.1597 57.7508 91.7098 57.3579 92.1813C57.5151 92.4171 57.908 92.7314 58.5367 92.9672C59.0082 93.1243 59.7155 93.5959 60.6585 94.3031L60.5014 94.146C60.7371 94.2245 60.9729 94.3031 61.13 94.3031H61.3658C61.4444 94.3031 61.523 94.3817 61.6015 94.5389C61.6015 94.6175 61.6016 94.696 61.6801 94.7746C61.7587 94.8532 61.8373 94.8532 61.9945 94.7746C62.1516 94.696 62.3088 94.7746 62.3874 94.8532C62.466 94.8532 62.6232 94.9318 62.7017 95.1676C62.8589 95.4033 62.9375 95.4819 63.0161 95.4819C63.5662 96.032 63.8805 96.3464 63.9591 96.5035C64.745 97.2894 65.2951 97.9967 65.688 98.6254C65.8452 99.0969 66.0024 100.276 66.081 102.319C66.1595 103.498 66.3167 104.598 66.4739 105.777C66.5525 106.563 66.7096 107.427 67.024 108.291C67.1026 108.763 67.1812 109.234 67.2597 109.706C67.4955 110.492 67.6527 111.042 67.6527 111.278C67.8098 112.771 67.8884 113.95 67.8884 114.893C67.8098 115.836 67.8098 116.543 67.6527 117.093C67.5741 117.643 67.5741 118.036 67.8098 118.35C67.967 118.665 68.4385 119.058 69.1458 119.451C69.6173 119.608 70.1674 119.922 70.7961 120.394C71.4248 120.865 71.9749 121.18 72.3678 121.415C72.7608 121.651 73.3895 121.808 74.3325 121.965C75.2755 122.123 76.2185 121.965 77.3187 121.651C77.4759 121.494 77.7117 121.258 77.9474 121.022C78.1832 120.787 78.4189 120.629 78.5761 120.472C78.7333 120.315 78.8905 120.158 79.1262 120.001C79.2834 119.844 79.4406 119.686 79.5977 119.529C79.7549 119.372 79.9121 119.293 80.0692 119.136C80.2264 118.979 80.3836 118.901 80.4622 118.901C80.5408 118.822 80.6979 118.822 80.7765 118.822C80.8551 118.822 81.0123 118.822 81.0909 118.822C81.5624 119.136 81.641 119.215 81.7196 119.293Z" fill="white"/>
<path d="M123.606 124.009C124.235 126.681 123.292 129.195 120.934 131.71C118.498 134.225 115.59 136.268 112.132 137.997C112.054 136.661 112.054 136.032 112.132 136.032C114.49 132.26 113.075 128.331 107.81 124.323C107.024 123.694 106.631 122.358 106.788 120.315C106.867 118.272 106.553 116.7 105.845 115.6C105.767 115.521 105.767 115.286 105.845 114.971C105.924 114.657 106.081 114.343 106.16 114.028C106.317 113.714 106.396 113.4 106.553 113.007C106.71 112.614 106.788 112.299 106.788 111.985C106.788 109.47 106.867 106.17 106.946 102.083C107.024 92.4171 107.024 86.7589 106.867 85.1086C106.71 83.4583 106.317 82.5938 105.61 82.5153C105.531 82.4367 105.453 82.3581 105.374 82.3581C104.902 82.2795 104.352 81.8866 103.724 81.1007C103.095 80.3148 102.623 79.8433 102.309 79.6076C100.973 78.7431 100.03 78.2716 99.4014 78.3502C98.7727 78.4288 98.4584 78.8217 98.3798 79.6076C98.3012 80.3934 98.3012 81.3365 98.3012 82.3581C98.3798 83.0653 98.4583 83.6155 98.4583 84.087C98.4583 84.5585 98.4584 85.1086 98.3798 85.7373C98.3012 86.3659 98.2226 86.9161 98.0654 87.3876C97.9082 87.8591 97.5939 88.252 97.2796 88.5664C97.201 88.6449 97.201 88.8021 97.2796 89.1165C98.0654 90.1381 98.2226 92.4957 97.7511 96.032C97.2796 99.5684 97.1224 101.926 97.2796 102.948C97.5153 106.405 97.5939 109.47 97.3581 112.142C97.1224 114.814 97.201 117.014 97.5939 118.665C97.9869 120.315 98.9299 121.258 100.266 121.415C100.502 121.415 100.895 121.258 101.366 120.865C101.838 120.551 102.23 120.158 102.623 119.844C102.938 119.529 103.252 119.529 103.409 119.765C103.645 120.394 103.566 120.944 103.016 121.494C102.073 122.358 101.052 123.301 100.109 124.323C99.1656 125.345 98.3798 126.209 97.7511 126.916C97.1224 127.624 96.4937 128.331 95.865 129.038C95.2363 129.745 94.6862 130.295 94.2933 130.61C93.8218 130.924 93.4288 131.239 92.9573 131.474C92.4858 131.71 92.0929 131.789 91.7 131.71C91.307 131.631 90.9141 131.474 90.4426 131.081C89.8139 130.61 88.7923 129.981 87.3777 129.117C85.9632 128.252 84.9416 127.466 84.3129 126.838C83.8414 126.13 83.2913 125.973 82.4268 126.209C81.641 126.523 81.0123 126.602 80.4622 126.445C81.1694 124.559 82.0339 123.38 83.1341 122.751C83.8414 122.28 84.3129 119.608 84.4701 114.735C84.5486 110.256 84.5486 98.7825 84.4701 80.3148C84.4701 80.0005 84.4701 79.6862 84.3915 79.3718C84.3129 79.1361 84.3129 78.9003 84.2343 78.7431C84.1557 78.5859 84.0771 78.4288 83.9199 78.3502C83.7628 78.2716 83.6056 78.193 83.4485 78.1144C83.2913 78.0359 83.0555 77.9573 82.7412 77.8787C82.4268 77.8001 82.1125 77.6429 81.7981 77.4857C79.5977 78.7431 78.419 79.2146 78.3404 78.9003C78.1832 78.6645 78.1832 78.2716 78.3404 77.8787C78.4975 77.4857 78.7333 77.0928 78.969 76.7785C79.2048 76.4641 79.5192 76.1498 79.8335 75.8355C80.1478 75.5997 80.4622 75.3639 80.6979 75.2853C82.3482 74.5781 83.6056 73.3993 84.5487 71.749C84.7844 71.1989 85.4131 70.6488 86.4347 70.0201C87.3777 69.3914 88.0064 68.9199 88.3208 68.6055C89.4996 67.3482 90.2068 66.7195 90.5998 66.7195C90.9141 66.6409 91.7 67.1124 92.8788 68.134C92.9574 68.2126 93.1145 68.4484 93.4289 68.7627C93.6646 69.0771 93.9004 69.3128 94.0576 69.5486C94.2147 69.7843 94.4505 69.8629 94.6862 69.8629C97.3582 70.4916 98.9299 72.0633 99.4014 74.5781C99.4014 74.6567 99.5586 74.7352 99.7943 74.8138C100.03 74.8924 100.423 74.8924 100.973 75.0496C101.209 73.8708 102.23 72.6134 103.881 71.1989C105.531 69.7843 106.553 68.5269 106.788 67.3482C106.788 67.191 107.024 67.0338 107.496 66.9552C107.967 66.8766 108.282 66.8767 108.517 67.1124C109.46 67.8983 110.482 68.9199 111.582 70.0987C112.682 71.2775 113.547 72.1419 114.097 72.692C114.647 73.2421 115.433 73.635 116.376 74.028C117.319 74.3423 118.419 74.4995 119.677 74.2637C120.541 74.1066 121.091 74.1065 121.327 74.4209C121.563 74.6566 121.563 74.971 121.405 75.3639C121.248 75.6783 121.013 76.0712 120.777 76.4641C120.541 76.8571 120.384 77.0928 120.384 77.1714C120.305 78.5859 120.148 80.3148 119.834 82.2795C119.519 86.1302 119.284 93.4387 119.284 104.205C119.284 108.056 119.284 111.199 119.284 113.557C119.284 115.443 119.519 116.7 119.912 117.407C120.384 118.115 120.934 118.901 121.641 119.765C122.427 120.708 123.056 122.123 123.606 124.009Z" fill="white"/>
<path d="M142.309 96.032C141.838 111.513 141.995 120.001 142.545 121.337C142.859 121.965 143.567 122.358 144.51 122.515L146.396 122.908C146.081 123.773 145.61 124.48 145.138 125.03C144.667 125.58 144.274 125.895 143.881 125.973C143.567 126.052 143.174 126.209 142.859 126.523C142.545 126.759 142.231 127.231 142.074 127.859C141.995 128.331 141.602 128.802 140.895 129.274C140.187 129.824 139.323 130.374 138.223 131.003C137.123 131.631 136.494 131.946 136.337 132.024C136.337 132.103 136.18 132.26 135.944 132.496C135.708 132.732 135.551 132.81 135.472 132.732C135.394 132.653 135.237 132.496 134.844 132.339C133.665 131.16 131.072 130.06 127.064 128.881C125.728 128.409 125.099 128.016 125.099 127.702C125.099 127.466 125.335 127.152 125.885 126.916C127.535 125.659 128.714 123.851 129.343 121.494C129.971 119.136 130.128 116.7 129.893 114.264C129.657 111.828 129.5 109.392 129.5 106.877C129.5 104.362 129.736 102.476 130.286 101.14C130.364 100.904 130.286 100.118 130.05 98.8611C129.814 97.6037 129.971 96.7393 130.679 96.4249C130.207 95.7177 129.971 95.0104 129.814 94.146C129.657 93.2815 129.578 92.6528 129.578 91.9456C129.578 91.3169 129.578 89.9023 129.657 87.7019C129.736 85.5801 129.736 83.5368 129.736 81.5722C129.736 80.0791 129.578 79.2146 129.343 78.9003C129.107 78.5859 128.164 78.2716 126.592 78.0358C126.042 77.9573 125.728 77.7215 125.57 77.4072C125.413 77.0928 125.413 76.7785 125.57 76.4641C125.728 76.1498 125.885 75.9926 126.042 75.9926C126.985 75.6783 128.4 74.6566 130.128 73.0063C131.857 71.356 133.429 70.4916 134.765 70.3344C134.922 69.5486 135.158 68.9985 135.394 68.6841C135.629 68.3698 135.865 68.2912 136.258 68.4483C136.573 68.6055 136.887 68.8413 137.201 69.077C137.437 69.3128 137.908 69.7057 138.537 70.3344C139.166 70.9631 139.637 71.4346 140.03 71.8276C140.423 72.2205 140.973 72.692 141.681 73.2421C142.388 73.7922 143.095 74.1851 143.881 74.4209C144.588 74.6566 145.374 74.8924 146.16 74.971C146.946 74.971 146.081 76.1498 143.645 78.4288C142.702 79.4504 142.231 80.3148 142.309 80.7863C142.388 81.3364 142.624 81.8866 143.017 82.4367C143.41 82.9868 143.488 83.4583 143.331 83.694C142.702 84.9514 142.309 86.2088 142.231 87.5447C142.152 88.8807 142.074 90.3738 142.231 92.1813C142.231 93.9888 142.309 95.2462 142.309 96.032ZM148.203 55.1673C148.439 55.4817 148.596 55.796 148.596 56.1104C148.596 56.4247 148.36 56.7391 147.81 57.2892C147.182 57.9964 146.396 58.8609 145.296 59.9611C144.274 60.9827 143.488 61.7685 143.017 62.2401C142.545 62.7116 141.995 63.2617 141.209 63.8904C140.423 64.5191 139.873 64.9906 139.48 65.1477C139.087 65.3049 138.616 65.4621 137.987 65.6193C137.358 65.7764 136.808 65.6978 136.18 65.4621C135.629 65.2263 135.001 64.912 134.294 64.4405C133.665 64.1261 133.115 63.576 132.486 63.0259C131.936 62.3972 131.464 62.0043 131.229 61.7685C130.993 61.5328 130.521 61.5328 129.893 61.6114C129.264 61.7686 128.478 62.2401 127.378 63.0259C126.749 63.3403 126.435 63.2617 126.356 62.633V62.3972C126.435 62.2401 126.514 61.9257 126.592 61.6114C126.828 60.9041 127.064 60.354 127.299 60.0397C127.535 59.7253 128.242 58.7823 129.5 57.3677C130.128 56.6605 130.679 56.1104 131.072 55.6388C131.543 55.1673 132.172 54.46 132.958 53.517C133.822 52.574 134.686 51.5524 135.551 50.4522C135.865 50.1378 136.18 49.9807 136.337 50.0592C136.494 50.1378 137.123 50.5308 138.066 51.238C140.423 53.1241 142.938 54.9316 145.61 56.8176C145.767 56.739 145.924 56.6605 146.081 56.5819C146.239 56.5033 146.396 56.3461 146.553 56.2675C146.71 56.1104 146.946 55.9532 147.182 55.796C147.575 55.4817 147.889 55.3245 148.203 55.1673Z" fill="white"/>
<path d="M189.932 131.396C191.897 133.91 191.818 136.975 189.697 140.354C187.575 143.734 184.746 146.877 181.131 149.706C180.266 150.414 179.559 151.042 179.088 151.592C178.616 152.142 178.066 152.457 177.594 152.692C177.044 152.928 174.451 154.107 169.657 156.229C169.343 155.522 168.714 155.443 167.771 155.915C166.907 156.386 166.357 156.386 166.042 155.836C165.571 155.129 164.942 154.971 164.156 155.443C163.292 155.915 162.663 155.915 162.27 155.443C161.72 154.814 160.934 154.264 159.834 153.793C158.734 153.321 157.634 152.928 156.612 152.535C155.59 152.221 154.883 151.907 154.49 151.592C153.94 151.121 153.154 150.806 151.975 150.649C150.797 150.492 150.168 150.335 150.011 150.256C147.967 149.628 146.317 150.021 144.981 151.278C144.667 151.514 144.274 151.749 143.881 151.907C143.488 152.064 143.017 152.221 142.388 152.457C141.759 152.614 141.366 152.771 141.052 153.007C141.602 150.178 143.567 147.191 147.103 143.969C150.639 140.747 153.783 139.569 156.612 140.433C158.891 140.276 161.327 140.59 163.842 141.376C166.357 142.162 168.871 143.184 171.465 144.362C174.058 145.541 175.866 146.327 176.966 146.641C177.909 146.877 178.773 146.956 179.559 146.72C180.345 146.484 180.974 146.091 181.445 145.541C181.995 144.991 182.31 144.362 182.545 143.655C182.781 143.026 182.781 142.319 182.702 141.612C182.545 140.905 182.231 140.354 181.681 139.883C180.659 138.94 179.559 138.075 178.537 137.29C177.516 136.504 176.73 135.954 176.337 135.639C175.944 135.325 175.551 135.011 175.158 134.696C174.765 134.461 174.53 134.068 174.53 133.518C174.451 132.967 174.451 132.496 174.372 132.024C174.294 131.553 174.294 130.61 174.215 129.117C174.137 127.702 174.137 126.209 173.979 124.716C173.744 124.873 172.958 125.738 171.7 127.309C170.443 128.881 169.029 129.981 167.457 130.846C165.885 131.631 164.392 131.631 162.899 130.846C161.956 130.374 160.384 129.981 158.262 129.51C156.14 129.038 154.569 128.567 153.547 127.938C152.683 127.388 151.504 127.702 150.089 128.724C148.675 129.745 147.653 129.981 146.946 129.274C146.867 129.195 146.867 128.96 146.867 128.645C146.946 128.331 147.103 128.095 147.339 127.938C147.967 127.388 148.518 126.916 148.911 126.445C149.382 125.973 149.696 125.423 150.011 124.873C150.325 124.323 150.561 123.459 150.639 122.437C150.797 121.415 150.875 120.394 150.954 119.372C151.032 118.429 151.111 116.936 151.111 114.971C151.111 113.007 151.111 111.121 151.111 109.313C151.111 107.506 151.111 104.991 151.111 101.69C151.111 98.3896 151.111 95.1676 151.111 92.1027C151.111 89.9023 150.168 88.8021 148.203 88.8021C147.967 88.8021 147.653 88.645 147.339 88.4092C147.024 88.1734 146.867 87.9377 146.867 87.7805C147.024 86.9161 147.417 86.366 147.889 86.2088C150.875 85.4229 155.04 82.9082 160.384 78.586C165.728 74.3423 169.107 71.356 170.6 69.7843C171.543 68.7627 172.172 68.2126 172.486 68.134C172.722 68.0554 173.351 68.4484 174.215 69.2342C174.687 69.7057 175.315 70.3344 176.258 71.2775C177.201 72.2205 177.752 72.7706 178.066 73.0849C178.38 73.3993 178.852 73.7922 179.559 74.3423C180.345 74.8924 180.895 75.2068 181.209 75.3639C181.524 75.4425 182.074 75.5997 182.781 75.8355C183.488 76.0712 184.117 76.0712 184.746 75.914C185.374 75.7568 186.082 75.5997 187.025 75.3639C187.889 75.2068 188.911 74.8924 189.932 74.4209C189.932 75.2067 189.775 75.8354 189.461 76.3069C189.147 76.7785 188.832 77.0928 188.439 77.3286C188.046 77.5643 187.653 78.1144 187.418 78.9789C187.103 79.8433 186.946 81.0221 186.946 82.5153C187.025 94.6175 187.025 105.541 186.946 115.128C186.946 115.443 187.025 116.229 187.182 117.407C187.339 118.586 187.339 119.451 187.182 120.158C187.025 120.865 186.632 121.494 185.924 122.123C186.16 122.83 186.475 123.616 186.71 124.402C186.946 125.266 187.103 125.816 187.182 126.13C187.26 126.445 187.339 126.838 187.575 127.309C187.811 127.781 187.889 128.095 187.889 128.095C187.889 128.174 187.968 128.331 188.203 128.724C188.439 129.117 188.518 129.352 188.596 129.352C188.675 129.431 188.832 129.667 189.225 130.217C189.539 130.767 189.775 131.16 189.932 131.396ZM174.215 98.8611C174.215 97.368 174.372 96.032 174.687 94.7746C175.001 93.5173 175.315 92.6528 175.551 92.0241C175.787 91.3954 175.944 90.7668 175.944 90.1381C175.944 89.5094 175.708 88.8021 175.158 88.252C167.85 80.8649 163.842 78.3502 162.977 80.6292C162.899 80.9435 162.899 81.1793 162.977 81.2579C163.135 81.415 163.292 81.6508 163.37 81.8866C163.449 82.1223 163.528 82.2795 163.606 82.4367C163.685 82.5938 163.685 82.751 163.606 83.0653C163.528 83.3797 163.528 83.5369 163.528 83.6155C163.528 83.694 163.449 83.8512 163.37 84.2441C163.292 84.6371 163.213 84.8728 163.135 84.8728C163.37 86.8375 163.606 88.4878 163.685 89.9023C163.763 91.3169 163.842 92.81 163.92 94.3817C163.999 95.9534 163.92 97.5251 163.842 99.0969C163.763 100.669 163.528 101.926 163.213 102.948C163.056 103.733 163.135 105.541 163.606 108.449C164.078 111.278 163.92 112.928 163.37 113.242C163.449 113.871 163.528 114.578 163.606 115.286C163.685 116.071 163.685 116.543 163.842 116.857C163.92 117.172 163.999 117.486 164.078 117.879C164.156 118.272 164.235 118.586 164.392 118.743C164.549 118.901 164.706 119.058 164.863 119.293C165.021 119.451 165.256 119.608 165.649 119.765C166.042 119.922 166.435 120.001 166.828 120.158C167.221 120.315 167.85 120.472 168.636 120.787C169.421 121.101 170.207 121.415 170.915 121.651C171.229 121.651 171.7 121.651 172.251 121.651C173.508 121.73 174.215 121.258 174.451 120.237C174.687 119.215 174.765 115.443 174.687 108.999C174.294 104.834 174.215 101.454 174.215 98.8611Z" fill="white"/>
<path d="M239.363 121.415L240.385 121.258C241.013 121.73 238.97 124.087 234.176 128.488C232.762 129.824 231.347 130.531 229.854 130.61C228.361 130.688 226.946 130.295 225.689 129.431C224.432 128.567 223.017 127.231 221.524 125.502C221.052 124.952 220.424 124.637 219.559 124.48C218.695 124.323 218.145 124.166 217.909 124.166C217.673 124.087 217.752 123.616 218.145 122.673C218.773 121.965 219.245 121.415 219.559 121.022C219.874 120.629 220.188 120.158 220.502 119.608C220.817 119.058 220.817 118.508 220.738 117.957C220.659 117.407 220.424 116.857 219.952 116.307C219.874 116.229 219.874 115.914 219.952 115.364C220.109 113.871 220.109 111.671 219.874 108.684C219.638 105.777 219.402 102.948 219.166 100.354C218.931 97.7609 218.773 95.2462 218.852 92.7314C218.931 90.2952 219.245 88.5663 219.874 87.6233C220.345 86.916 220.345 86.2088 219.952 85.5801C219.559 84.9514 218.931 84.4013 218.066 83.9298C216.73 83.3011 214.687 81.7294 211.858 79.2146C210.443 77.8787 209.5 77.8786 209.107 79.0574C208.4 81.1007 208.086 90.6882 208.164 107.82C208.321 110.806 208.4 114.185 208.4 117.879C208.4 120.708 208.557 122.28 208.793 122.594C209.029 122.908 209.893 122.83 211.308 122.358C211.858 122.123 212.329 121.887 212.722 121.73C213.194 121.572 213.351 121.494 213.351 121.572C213.587 122.044 213.665 122.358 213.587 122.515C209.5 127.859 206.671 131.396 204.864 132.967C203.135 134.539 201.642 134.618 200.542 133.125C199.913 132.182 199.048 131.396 197.948 130.767C196.848 130.138 195.826 129.745 194.962 129.431C194.097 129.195 193.312 128.881 192.683 128.567C192.054 128.252 191.818 127.781 191.897 127.231C191.976 126.681 192.526 125.895 193.626 125.03C194.883 123.851 195.591 118.979 195.826 110.335C196.062 101.69 196.062 91.867 195.826 80.8649C195.591 69.8629 195.512 63.2617 195.591 60.9041C195.669 59.411 195.591 58.3108 195.355 57.6035C195.119 56.8962 194.648 56.2675 193.94 55.6388C193.312 55.0101 192.761 54.3815 192.447 53.7528C191.897 52.4954 191.426 51.8667 190.954 51.7095C190.482 51.5524 189.932 51.7095 189.304 52.1025C188.675 52.4954 188.125 52.7311 187.732 52.7311C187.811 52.0239 188.046 51.5524 188.361 51.238C188.675 50.9237 191.74 47.8588 197.555 41.9649C197.87 41.7291 198.263 41.4934 198.577 41.3362C198.891 41.179 199.206 41.1004 199.52 41.179C199.834 41.2576 200.149 41.3362 200.384 41.4148C200.62 41.4934 200.934 41.7291 201.327 42.0435C201.642 42.3578 201.956 42.5936 202.192 42.8293C202.428 43.0651 202.742 43.3794 203.213 43.8509C203.685 44.3225 203.999 44.7154 204.235 44.9511C205.492 46.2085 206.671 46.9158 207.929 47.2301C209.186 47.5445 210.05 47.7016 210.6 47.6231C211.151 47.5445 211.465 47.8588 211.465 48.3304C211.544 49.1948 211.465 49.9021 211.151 50.295C210.836 50.7665 210.522 51.0023 210.129 51.0809C209.736 51.1594 209.343 51.5524 209.029 52.3382C208.714 53.1241 208.479 54.2243 208.479 55.8746C208.479 58.7037 208.4 62.1615 208.322 66.3265C208.243 71.9847 208.479 74.8924 208.95 75.2067C209.5 75.5211 211.386 73.7922 214.608 70.0201C215.08 69.5485 215.394 69.2342 215.63 68.9984C215.866 68.7627 216.18 68.3698 216.652 67.8982C217.123 67.4267 217.516 66.9552 217.83 66.4837C220.895 69.8629 223.331 72.2205 225.139 73.635C226.946 75.0496 228.125 75.8354 228.675 75.914C229.225 76.0712 230.011 75.8354 231.033 75.2853C232.054 74.7352 232.919 74.4209 233.705 74.3423C233.705 74.971 233.705 75.2853 233.705 75.3639C232.998 76.6999 232.683 78.5074 232.683 80.9435C232.762 83.3011 232.683 85.1871 232.447 86.5231C231.033 92.2599 231.111 102.633 232.605 117.8C232.683 119.058 233.548 120.315 235.276 121.572C236.927 122.751 238.341 122.751 239.363 121.415Z" fill="white"/>
<path d="M274.255 69.1556C274.491 69.3914 274.491 69.8629 274.019 70.413C273.626 70.9631 272.998 71.749 272.133 72.692C271.269 73.635 270.562 74.5781 270.169 75.3639C268.911 77.6429 268.047 79.6076 267.497 81.2579C266.947 82.9082 266.711 84.0084 266.868 84.7157C267.025 85.4229 267.182 85.973 267.497 86.5231C267.811 87.0732 268.125 87.4662 268.518 87.7019C268.833 87.9377 268.99 88.4092 268.911 89.0379C268.833 89.6666 268.44 90.4524 267.732 91.5526C267.182 90.6882 266.239 88.9593 264.825 86.4446C265.611 85.8159 266.004 84.7942 265.925 83.3797C265.846 81.9651 266.082 80.9435 266.554 80.2362C266.789 79.6861 266.868 79.3718 266.789 79.2932C266.632 79.2146 266.397 79.136 265.925 79.136C265.453 79.136 264.903 79.136 264.196 79.136C262.074 79.0575 260.817 79.0575 260.267 79.2146C259.795 79.3718 259.559 79.8433 259.559 80.6292C259.559 84.1655 259.402 86.366 259.167 87.3876C258.931 88.3306 258.695 89.3522 258.616 90.4524C258.538 91.6312 258.695 94.6175 259.088 99.4112C259.481 104.284 259.324 107.506 258.459 109.156C258.302 109.706 258.224 110.177 258.224 110.57C258.302 111.042 258.302 111.278 258.459 111.435C258.538 111.592 258.695 111.828 258.931 112.142C259.167 112.456 259.324 112.849 259.402 113.164C259.638 113.792 259.795 114.264 259.795 114.657C259.795 115.05 259.795 115.443 259.795 115.679C259.795 115.993 260.11 116.622 260.817 117.565C261.446 118.508 262.546 119.844 264.039 121.572C264.196 121.494 264.589 121.415 265.139 121.337C265.689 121.258 266.161 121.18 266.554 121.101C266.947 121.022 267.261 120.708 267.575 120.237L268.754 120.472L268.911 120.629C268.99 120.944 269.068 121.258 269.068 121.415C269.068 121.572 268.911 121.887 268.597 122.201C268.283 122.515 267.968 122.83 267.654 123.066C267.339 123.301 266.868 123.616 266.318 124.087C265.768 124.559 265.296 125.03 264.903 125.502C264.196 126.209 263.567 126.838 263.017 127.466C262.467 128.095 262.153 128.488 261.996 128.724C261.917 128.96 261.681 129.117 261.367 129.352C261.053 129.51 260.66 129.588 260.345 129.588C260.031 129.588 259.402 129.588 258.459 129.588L257.123 127.702L256.495 128.488C256.573 129.038 257.045 129.431 257.831 129.667C257.988 131.003 257.752 131.553 257.202 131.396C257.045 131.396 255.552 130.453 252.88 128.488C249.422 125.973 246.514 124.873 243.999 125.345C243.135 125.502 242.742 125.187 242.821 124.402C242.899 123.459 243.292 122.515 243.842 121.651C245.1 120.865 245.728 119.844 245.728 118.586C245.807 117.329 245.807 116.622 245.964 116.386C246.121 116.15 246.514 115.836 246.986 115.443V115.286C247.3 114.971 247.3 114.264 246.829 113.321C246.357 112.378 246.278 111.278 246.593 110.177C246.593 109.942 246.75 109.234 247.143 108.056C247.457 106.877 247.693 106.012 247.693 105.384C247.614 105.069 247.379 104.519 247.064 103.812C246.75 103.105 246.593 102.555 246.593 102.24C246.436 101.69 246.436 100.511 246.75 98.6254C246.986 96.7393 246.907 94.146 246.514 90.9239C246.514 90.6882 246.436 90.0595 246.279 89.0379C246.121 88.0948 245.964 87.309 245.886 86.6803C245.807 86.0516 245.807 85.3443 245.886 84.4013C245.964 83.5369 246.2 82.751 246.514 82.1223C247.064 81.1007 247.3 80.3934 247.143 80.2362C247.064 80.0005 246.357 79.9219 245.178 80.0005C244.628 80.0791 243.842 80.0791 242.664 80.0005C241.485 79.9219 240.542 79.9219 239.599 80.0005C238.734 80.0791 237.87 80.3148 237.084 80.7864C237.084 80.8649 237.005 80.8649 236.848 80.7078C236.691 80.5506 236.612 80.472 236.534 80.3148C236.455 80.1577 236.377 80.0791 236.377 80.0005C237.163 77.25 238.027 75.1282 239.049 73.4779C239.992 71.8276 240.856 70.806 241.642 70.3344C242.349 69.8629 243.135 69.5486 243.921 69.3914C244.707 69.2342 245.257 69.2342 245.807 69.3914C246.278 69.5486 246.671 69.47 246.829 69.3128C247.064 69.1556 247.143 68.6841 247.064 67.8983C246.986 67.6625 246.986 67.191 246.986 66.6409C247.064 66.0908 246.986 65.5407 246.907 65.1478C246.829 64.6762 246.593 64.2833 246.279 63.969C246.121 63.8118 246.2 63.1831 246.514 62.1615C246.829 61.1399 246.907 60.5898 246.829 60.5112C246.593 59.9611 246.514 59.1752 246.593 58.1536C246.75 57.132 246.514 56.2676 245.964 55.796C245.257 54.9316 244.785 54.3815 244.471 54.1457C244.157 53.91 243.921 53.8314 243.764 53.91C243.607 53.9885 243.214 54.1457 242.742 54.5387C242.192 54.9316 241.563 55.2459 240.856 55.5603C240.856 54.7744 240.935 54.3029 241.092 54.1457C241.406 53.5956 244 51.3166 248.872 47.1516C249.501 46.6015 250.129 46.0514 250.836 45.3441C251.544 44.7154 251.937 44.2439 252.015 44.0081C252.094 43.7724 252.33 43.6938 252.801 43.6938C253.273 43.6938 253.508 43.7724 253.508 43.9296C253.587 44.0867 253.901 44.5582 254.609 45.2655C255.316 45.9728 255.945 46.6015 256.573 47.1516C256.809 47.3873 257.202 47.7803 257.673 48.2518C258.145 48.7233 258.538 49.1162 258.695 49.2734C258.931 49.5092 259.324 49.8235 259.795 50.2164C260.267 50.6094 260.817 50.7665 261.21 50.7665C261.603 50.6879 262.231 50.688 263.017 50.688L263.253 51.631C262.31 52.1811 261.524 52.7312 260.974 53.4385C260.424 54.0671 260.031 55.0102 259.795 56.1104C259.559 57.2106 259.481 58.1536 259.481 59.018C259.481 59.8825 259.481 61.2185 259.559 63.1831C259.638 65.1478 259.56 66.7195 259.481 68.0554C259.481 68.9199 259.795 69.47 260.424 69.6271C261.21 69.7843 264.668 69.7843 270.876 69.6271C271.112 69.6271 271.426 69.5486 271.74 69.3914C272.055 69.2342 272.29 69.077 272.526 68.8413C272.762 68.6841 272.998 68.6055 273.312 68.6055C273.548 68.6055 273.862 68.7627 274.255 69.1556ZM257.752 129.745C258.224 129.667 258.381 129.667 258.381 129.745H257.752Z" fill="white"/>
<path d="M314.884 106.091C315.434 107.27 314.02 110.099 310.798 114.657C307.576 119.215 304.118 123.537 300.581 127.466C297.045 131.396 295.159 133.203 295.08 132.889C294.137 130.924 293.351 129.745 292.801 129.352C292.251 128.881 290.365 128.017 287.222 126.681C284.157 125.423 281.642 124.637 279.756 124.166C277.87 123.694 275.827 123.851 273.784 124.402C271.662 125.03 269.697 126.366 267.968 128.488C267.182 129.352 266.239 130.924 265.218 133.125L264.668 134.068C264.668 133.832 264.903 132.967 265.296 131.553C265.768 129.903 266.318 128.331 267.104 126.838C267.89 125.345 268.675 124.009 269.618 122.751C270.562 121.494 271.505 120.394 272.526 119.293C273.548 118.272 274.569 117.329 275.591 116.622C276.613 115.836 277.713 115.207 278.734 114.736C279.756 114.185 280.778 113.871 281.721 113.714C282.664 113.557 283.528 113.478 284.314 113.557C285.1 113.635 285.729 113.871 286.279 114.343C286.436 114.5 286.75 114.5 287.065 114.264C287.379 114.028 287.693 113.792 287.929 113.635C288.165 113.4 288.401 113.4 288.558 113.478C288.793 113.635 288.951 114.028 289.029 114.736C289.029 115.286 289.265 115.443 289.658 115.364C290.051 115.286 290.601 115.05 291.308 114.736C292.015 114.5 292.959 114.657 294.216 115.286C295.08 115.836 295.788 116.15 296.181 116.229C296.181 116.936 296.338 117.407 296.573 117.565C297.124 117.8 297.516 117.8 297.909 117.329C298.224 116.936 298.852 117.25 299.638 118.193C300.267 118.743 300.974 118.272 301.917 116.779C303.568 113.95 303.175 111.435 300.581 109.156C298.695 107.584 296.023 106.405 292.408 105.62C289.658 104.991 287.772 104.362 286.672 103.733C285.571 103.105 284.157 102.712 282.507 102.398C279.835 101.926 277.713 101.062 276.141 99.647C274.491 98.2325 273.233 95.8749 272.369 92.6529C272.369 92.5743 272.448 92.4171 272.526 92.1027C272.605 91.9456 272.683 91.7884 272.762 91.5527C272.84 91.3955 272.998 91.0811 273.312 90.6882C273.626 90.2953 273.862 89.8237 274.098 89.2736C275.434 86.5231 277.398 84.0084 279.992 81.6508C282.585 79.2932 284.235 77.25 284.943 75.5211C285.729 75.2068 286.593 74.5781 287.457 73.7136C288.322 72.8492 289.108 72.0633 289.737 71.1989C290.365 70.3344 290.994 69.6272 291.623 68.9199C292.251 68.2126 292.801 67.8983 293.43 67.8983C293.98 67.9769 294.53 68.3698 295.08 69.3128C295.945 70.7274 297.909 72.692 301.053 75.2068C304.118 77.7215 306.318 78.8217 307.654 78.586C307.811 78.5074 308.047 78.4288 308.283 78.3502C308.519 78.2716 308.676 78.1145 308.911 78.0359C309.069 77.8787 309.304 77.7215 309.619 77.4072C309.933 77.0928 310.247 76.8571 310.483 76.6213C310.719 76.3856 311.19 75.9926 311.741 75.4425C312.291 74.8924 312.841 74.3423 313.234 73.9494C313.469 73.8708 313.155 74.5781 312.133 76.1498C311.112 77.7215 309.776 79.4504 308.204 81.4936C306.554 83.5369 305.218 84.9514 304.196 85.8159C302.939 86.6803 302.153 87.1518 301.839 87.2304C301.524 87.309 301.131 87.1518 300.817 86.8375C300.503 86.5232 299.874 86.4446 299.088 86.6017C298.224 86.7589 296.573 86.2088 294.137 84.7943C291.701 83.4583 289.658 81.5722 287.85 79.2932C286.2 77.1714 284.707 77.1714 283.371 79.1361C282.428 80.0791 281.957 81.1793 282.035 82.2795C282.114 83.4583 282.9 84.9514 284.393 86.7589C285.336 88.0949 286.829 89.1165 288.872 89.8238C290.915 90.531 293.037 91.1597 295.395 91.7098C297.752 92.2599 300.11 92.8886 302.467 93.7531C304.825 94.6175 307.183 96.032 309.54 98.0753C311.426 100.04 313.391 102.712 314.884 106.091Z" fill="white"/>
</svg>
