<svg width="40" height="40" viewBox="0 0 40 40" fill="none" xmlns="http://www.w3.org/2000/svg">
<path d="M16.1041 28.5636C24.0286 28.5636 28.363 21.9982 28.363 16.3046C28.363 16.1182 28.363 15.9325 28.3505 15.7477C29.1937 15.1378 29.9216 14.3826 30.5 13.5175C29.7137 13.8659 28.8795 14.0944 28.0254 14.1954C28.9246 13.6571 29.598 12.8098 29.9195 11.8123C29.0738 12.3141 28.1485 12.6678 27.1837 12.8581C26.369 11.9918 25.2313 11.5 24.0422 11.5C21.6763 11.5 19.7296 13.4468 19.7296 15.8125C19.7296 16.1408 19.7671 16.4679 19.8412 16.7876C16.3788 16.6141 13.1483 14.9763 10.9616 12.2861C9.82447 14.2436 10.4128 16.7804 12.2955 18.0375C11.6099 18.0172 10.9391 17.8322 10.34 17.4982V17.5528C10.3406 19.596 11.7939 21.3718 13.7966 21.7764C13.1623 21.9493 12.4967 21.9746 11.8512 21.8503C12.4142 23.601 14.0378 24.8078 15.8765 24.8424C14.3511 26.0411 12.4657 26.6923 10.5256 26.6904C10.1828 26.6897 9.84035 26.669 9.5 26.6282C11.4701 27.8925 13.7632 28.5633 16.1041 28.5602" fill="white"/>
</svg>
